<svg width="200" height="300" viewBox="0 0 200 300" fill="none" xmlns="http://www.w3.org/2000/svg">
<path d="M52.3157 14.8827L0 67.9054H125.867C131.377 67.9054 136.642 65.6324 140.421 61.6228L198.5 0H87.9075C74.5304 0 61.7111 5.36038 52.3157 14.8827Z" fill="#D2A84A"/>
<path d="M54.3369 129.787L0 184.459H125.873C131.379 184.459 136.642 182.189 140.42 178.184L200 115.034H89.8008C76.4867 115.034 63.7224 120.344 54.3369 129.787Z" fill="#D2A84A"/>
<path d="M51.7945 247.111L0 300H125.726C131.318 300 136.655 297.659 140.442 293.544L197 232.095H87.5176C74.0755 232.095 61.1996 237.507 51.7945 247.111Z" fill="#D2A84A"/>
</svg>
